Patient4_TMGait_0pt4_03_right_10_EMG.mot
version=1
nRows=33
nColumns=33
inDegrees=no
endheader
time	1LAddLong	2LGlutMax	3LGlutMed	4LIliopsoas	5LSemiMemb	6LBicFemLong	7LRecFem	8LVastMed	9LVastLat	10LGasMed	11LTibAnt	12lTibPost	13LPeroneusLong	14LSol	15LExtDigLong	16LFlexDigLong	17RAddLong	18RGlutMax	19RGlutMed	20RIliopsoas	21RSemiMemb	22RBicFemLong	23RRecFem	24RVastMed	25RVastLat	26RGasMed	27RTibAnt	28RTibPost	29RPeroneusLong	30RSol	31RExtDigLong	32RFlexDigLong
12.545	-0.006409	0.012054	-0.27161	0.016174	0.022583	-0.027466	-0.021362	0.000916	0.11459	-0.027313	0.04303	0.005188	-0.023804	0.17868	-0.16953	0.00885	-0.028687	-1.0777	-0.457	-0.068207	0.2449	0.02182	0.22553	0.08728	0.006256	0.049591	0.10788	0.042267	-0.070343	0.68329	0.003662	-0.008087
12.546	-0.005035	0.037842	-0.29007	0.018616	-0.01358	-0.022125	0.079803	0.000153	0.10361	-0.029602	0.15167	0.001373	0.028839	0.20935	0.02182	0.000153	0.027161	-1.075	0.033417	-0.05661	0.19531	-0.19012	0.35095	-0.05249	-0.066681	0.038757	0.13168	-0.010071	-0.28519	0.29266	-0.001068	0.004272
12.547	-0.000916	0.010986	-0.26398	0.010376	-0.004272	-0.013275	0.23193	0.00061	0.095825	-0.033875	0.14282	0.003967	0.011902	0.19211	0.13702	-0.010529	0.048828	-0.95901	0.34943	-0.000458	0.22537	-0.16892	0.26443	-0.084534	-0.13092	0.026398	0.088654	-0.018616	0.97672	0.24796	-0.006104	0.007172
12.548	-0.005493	0.033722	-0.24536	0.01236	-0.010071	-0.014038	0.24292	-0.004883	0.11292	-0.005188	0.18784	0.003815	-0.028381	0.15427	-0.12451	-0.014038	0.018616	-0.84579	-0.096588	0.11627	0.011749	-0.067749	0.21164	-0.065918	-0.1149	0.016632	0.032196	-0.036926	1.2517	0.27542	-0.000916	0.001373
12.549	0.001984	0.019989	-0.21835	0.018463	-0.002136	-0.027924	0.24658	0.000763	0.11002	-0.013275	0.19379	0.006561	0.036011	0.15549	-0.44525	-0.017548	-0.005646	-0.79407	-0.66361	0.19806	-0.3125	-0.011292	0.18692	-0.006256	-0.074921	0.011444	0.039215	-0.02243	-0.28519	0.22964	-0.00473	-0.007935
12.55	-0.002899	-0.012207	-0.22598	0.023193	-0.008545	-0.016174	0.22324	0.005341	0.121	-0.049133	0.18112	0.007019	0.056458	0.16052	-0.35461	-0.013275	-0.063782	-0.72739	-0.48706	0.18249	-0.21057	0.033264	0.18295	0.024261	-0.010681	0.014343	0.12619	-0.018311	-0.16312	0.10117	-0.005798	-0.007935
12.551	-0.003662	-0.030212	-0.20508	0.015717	-0.008392	-0.014191	0.22827	0	0.10071	-0.036926	0.099487	0.003662	-0.040283	0.12436	0.099945	-0.014954	-0.083923	-0.70786	-0.76126	0.15549	-0.074615	0.027161	0.15945	0.13153	0.023956	0.020599	0.17044	-0.018921	-0.69443	-0.059357	-0.004272	-0.000305
12.552	0.008087	-0.059662	-0.18341	0.020752	-0.010834	-0.017242	0.17273	0.00061	0.11353	-0.027466	-0.004578	0.001984	-0.05249	0.097809	0.21622	-0.02182	-0.03952	-0.63126	-0.5864	-0.001373	0.038452	-0.099487	0.086517	0.18585	0.10727	0.032806	0.036316	-0.014343	0.15106	-0.12558	-0.004425	-0.000916
12.553	0.001221	-0.057068	-0.14481	0.0177	-0.00351	-0.02655	0.14358	-0.000916	0.10696	-0.043945	-0.013885	0.003204	0.015411	0.05188	-0.10086	-0.008545	-0.056305	-0.5397	-0.05249	-0.091705	0.15152	-0.074615	0.04425	0.21149	0.21774	0.02121	-0.25345	-0.015411	1.2236	-0.16083	-0.001221	0.004425
12.554	-0.003662	-0.068207	-0.13031	0.003204	-0.003357	-0.011902	0.075836	0.00885	0.094452	-0.036621	-0.21835	0.01297	0.087891	-0.007629	-0.38788	-0.012665	-0.034485	-0.4509	0.38544	-0.074615	0.066071	-0.021362	0.058136	0.074158	0.2385	-0.014954	-0.16357	-0.019684	0.09079	-0.24521	-0.00061	0.010529
12.555	0.003204	-0.04364	-0.12436	0.054016	-0.007324	-0.000305	0.045776	0.007629	0.088501	0.004272	-0.046082	0.001984	-0.005493	-0.016479	-0.31998	-0.018921	-0.016327	-0.43137	0.21362	-0.008698	-0.024109	0.051575	0.15091	-0.013885	0.21439	-0.011292	0.096283	-0.023346	-0.85983	-0.17425	-0.000916	0.004272
12.556	-0.000916	-0.046234	-0.093842	0.031738	0	-0.013123	0.06073	0.008698	0.083466	0.020905	-0.25894	0.00473	-0.038147	-0.019836	-0.17456	-0.018921	-0.03067	-0.41412	0.28153	-0.004883	-0.10178	0.11002	0.010834	-0.029755	0.19028	-0.03952	0.16312	-0.029297	-1.0323	-0.26276	-0.004425	0.002899
12.557	0.006866	-0.039825	-0.051575	-0.013123	-0.007935	-0.010071	-0.04837	0.011749	0.086517	0.014343	-0.25238	-0.001984	-0.001221	0.049133	-0.058136	-0.016022	0.007019	-0.29175	0.24857	-0.046387	-0.1593	0.054169	0.080414	-0.042419	0.11643	-0.097198	0.10361	-0.046844	-0.72296	-0.24628	-0.006256	0.010376
12.558	0.004883	-0.064392	-0.041504	-0.012512	-0.005188	-0.007172	-0.036774	0.01297	0.070496	0.023804	-0.112	0.001984	-0.022278	0.030365	-0.097504	-0.020294	0.027313	-0.16678	0.34988	-0.077515	-0.14511	-0.11078	0.094757	-0.099792	0.073547	-0.09613	0.12497	-0.034332	-1.1087	-0.09964	0.001831	0.018463
12.559	0.010071	-0.032043	-0.055084	-0.004578	-0.013275	-0.000153	-0.023041	0.031586	0.072021	0.031586	0.046997	0.005646	-0.034332	-0.045624	-0.003662	-0.02655	0.024872	-0.097198	-0.043793	-0.063171	0.016937	-0.12116	0.020447	0.055084	-0.05661	-0.095062	0.085602	-0.014801	-1.1455	0.023499	-0.001373	0.016785
12.56	0.002136	-0.001373	-0.050659	-0.009155	-0.004272	-0.016327	-0.089417	0.015564	0.10025	0.03891	0.14496	-0.008392	-0.044403	-0.067291	-0.001678	-0.035706	0.001221	-0.12848	-0.79865	-0.011292	-0.050507	-0.16449	-0.12253	0.13092	-0.43137	-0.12634	0.043793	0.016327	-0.25635	0.19653	-0.003815	0.024567
12.561	0.005035	-0.02121	-0.060425	-0.001678	-0.007782	-0.017853	-0.12589	0.051117	0.094299	0.021362	0.067444	0.003815	0.005341	-0.023804	0.029755	-0.00885	-0.00061	-0.030365	-0.7254	0.13702	0.077362	-0.17029	-0.11108	0.049133	-0.32349	-0.025024	0.05722	0.024414	0.57938	0.18372	-0.007782	0.021667
12.562	-0.000305	-0.038452	-0.044861	0.008087	-0.00061	0.005646	-0.18768	0.006256	0.084229	-0.002747	0.007172	0.005951	0.06012	-0.00473	0.19134	-0.016174	0.009766	0.007324	-0.83481	0.17532	0.054932	-0.072327	-0.092316	-0.006104	-0.16449	-0.046234	0.027161	0.011597	0.11337	0.25665	-0.003662	0.022278
12.563	0.00412	-0.016937	-0.076141	0.018005	0	-0.000458	-0.15274	0.00885	0.080872	0.006714	0.025787	0.006104	0.020294	0.047455	0.62515	-0.018768	0.024109	-0.030518	-0.68695	0.075073	-0.063171	0.055084	-0.088959	-0.056305	-0.08667	-0.1001	-0.023956	-0.002594	0.42252	0.071106	-0.004425	0.016785
12.564	0.000458	-0.024872	-0.087891	0.023804	0.00061	-0.007935	-0.065155	0.011139	0.068817	0.045319	0.085602	0.004272	-0.089264	0.11078	0.67581	-0.024567	0.019379	0.024567	-0.003662	-0.041199	-0.084534	0.23315	-0.070496	-0.049744	0.009155	-0.025482	-0.014954	-0.027008	0.47867	-0.03952	-0.003357	0.016785
12.565	-0.000153	-0.007782	-0.082397	0.011597	-0.002136	-0.002136	0.046234	0.01358	0.080109	0.034943	0.023041	0.004425	-0.084991	0.14954	0.65109	-0.009308	0.037537	0.12253	0.22354	-0.010376	-0.16373	0.27435	-0.046844	-0.051727	-0.005951	0.05188	0.001526	0.005798	0.81573	-0.016479	-0.002747	0.017395
12.566	-0.001526	-0.020447	-0.068207	-0.004578	-0.003662	0.010986	0.11612	-0.010681	0.091858	-0.012512	-0.066071	0.003357	-0.015717	0.15701	-0.61905	-0.021515	0.006409	0.17868	-0.48248	0.093994	-0.11536	0.28686	-0.036011	0.022736	0.010376	0.1532	0.027618	0.033569	0.8728	0.03006	-0.004425	0.009155
12.567	0.012817	-0.041046	-0.085297	-0.006866	-0.003815	-0.003815	0.19089	-0.007172	0.077515	-0.026245	-0.042572	0.001678	0.017548	0.15442	-0.26642	-0.02594	-0.027313	0.23468	-0.57312	0.016174	-0.029907	0.16922	-0.093689	0.10819	0.052338	0.17273	0.14969	-0.25452	0.21271	-0.10223	0.000305	0.002289
12.568	0.006866	-0.019989	-0.072784	-0.005341	-0.00473	0.00061	0.15274	0.00351	0.075531	-0.036774	0.087433	-0.005035	0.028229	0.16922	-0.24674	-0.026398	-0.03067	0.30563	-0.18799	0.023956	0.11536	-0.011749	0.026093	0.13992	0.033875	0.067139	0.20859	0.067596	-0.10284	-0.39749	-0.006561	0.000916
12.569	0.003204	0.00351	-0.095978	0.003052	-0.001984	0.016022	0.15289	0.005035	0.06073	-0.009155	-0.032959	-0.000916	-0.006104	0.15015	-0.15076	-0.029297	0.002899	0.35736	-0.19394	-0.041199	0.20004	-0.13992	0.054016	0.098114	-0.023193	0.050964	0.029755	0.11841	0.27481	-0.59387	-0.003357	-0.005341
12.57	0.004272	-0.03479	-0.10056	0.00061	-0.000763	0.009155	0.12802	0.009308	0.031433	0.02533	-0.16495	-0.000153	-0.047607	0.042419	-0.15991	-0.049286	0.033417	0.37262	0.067749	-0.080566	0.15503	-0.32562	-0.009766	0.060577	-0.028381	0.049438	-0.10056	-0.048981	0.19302	-0.56366	-0.004272	0.003967
12.571	-0.004425	-0.031891	-0.097961	-0.007629	-0.011902	0.019379	0.06546	0.007172	0.04303	0.045166	-0.16235	-0.005646	-0.10468	0.027618	-0.026855	-0.031433	-0.010986	0.39795	0.84854	-0.014496	-0.002289	-0.30136	-0.049133	0.074158	0.012817	0.006714	0.034027	-0.10376	-0.43945	-0.22903	-0.004425	-0.000458
12.572	0.005493	-0.033722	-0.079803	-0.010071	0.001068	0.018311	0.082092	0.009308	0.032806	0.036469	-0.21545	-0.000458	-0.057831	-0.015564	-0.34836	-0.030212	-0.03479	0.42145	0.74951	0.035858	-0.092468	-0.11505	0.066223	0.11932	0.039368	0.014343	0.042725	-0.026093	-0.68253	0.065002	-0.004883	0.010834
12.573	0.003815	-0.036316	-0.09079	0.003967	-0.003052	0.019226	0.10849	0.000458	0.034332	-0.006256	-0.23209	-0.008698	0.006409	-0.028229	0.039978	-0.039215	-0.014343	0.4773	0.23056	0.005341	-0.089417	-0.16754	0.28931	0.072174	-0.00351	0.031586	0.016327	0.14191	-0.28824	0.036469	-0.004578	0.005188
12.574	0.004578	-0.036926	-0.079956	0.039215	-0.003815	0.025482	0.12543	0.003662	0.017242	-0.014038	-0.35767	-0.006714	0.077972	-0.023804	0.20966	-0.034485	0.009766	0.40405	-0.054169	-0.023651	-0.056	-0.28122	0.25757	-0.013885	-0.036621	0.00824	0.009613	0.070953	0.17075	-0.10468	-0.005341	0.005188
12.575	0.006561	-0.037079	-0.084381	0.071869	-0.001678	0.016174	0.10651	0.010071	0.014038	-0.024109	-0.18112	-0.005341	0.0914	0.02594	0.35156	-0.032501	0.015259	0.39261	-0.19547	-0.10117	-0.036316	-0.20783	0.18768	-0.17532	-0.045624	-0.011597	0.03418	0.048065	0.15228	-0.074158	0.000153	0.000305
12.576	0.00885	-0.042267	-0.090332	0.067291	0.00061	0.013733	0.097809	0.002136	0.007019	0.006866	-0.074463	-0.00412	-0.005188	0.00351	-0.32288	-0.039215	0.002899	0.3595	-0.10239	-0.12436	-0.022278	0.070648	0.069275	-0.26398	-0.014191	0.016327	0.012665	0.025787	0.23941	0.071259	-0.001373	0.006866
12.577	0.004578	-0.0383	-0.092926	0.020142	-0.004578	0.012665	0.098877	0.007019	0.003815	0.022125	0.011902	-0.002594	-0.059204	0.000305	0.73318	-0.046539	-0.002136	0.45471	-0.7161	-0.020752	-0.024567	-0.074005	-0.17151	-0.11734	-0.025482	0.020294	-0.049133	0.018158	0.59204	-0.29663	-0.003662	0.008087
